<?xml version="1.0" encoding="UTF-8" standalone="no"?>
<!-- Created with Inkscape (http://www.inkscape.org/) -->

<svg
   version="1.1"
   id="svg9"
   xml:space="preserve"
   width="273.25464"
   height="185.9469"
   viewBox="0 0 273.25464 185.9469"
   sodipodi:docname="matching.svg"
   inkscape:version="1.1.2 (b8e25be833, 2022-02-05)"
   xmlns:inkscape="http://www.inkscape.org/namespaces/inkscape"
   xmlns:sodipodi="http://sodipodi.sourceforge.net/DTD/sodipodi-0.dtd"
   xmlns="http://www.w3.org/2000/svg"
   xmlns:svg="http://www.w3.org/2000/svg"><defs
     id="defs13"><clipPath
       clipPathUnits="userSpaceOnUse"
       id="clipPath43"><path
         d="m 99.2138,0 c 0,35.22533 -28.55497,63.7803 -63.78031,63.7803 C 0.20816,63.7803 -28.3468,35.22533 -28.3468,0 c 0,-35.22533 28.55496,-63.7803 63.78029,-63.7803 35.22534,0 63.78031,28.55497 63.78031,63.7803 z"
         id="path41" /></clipPath><clipPath
       clipPathUnits="userSpaceOnUse"
       id="clipPath55"><path
         d="m 28.3468,0 c 0,35.22533 -28.55496,63.7803 -63.78029,63.7803 -35.22534,0 -63.78031,-28.55497 -63.78031,-63.7803 0,-35.22533 28.55497,-63.7803 63.78031,-63.7803 35.22533,0 63.78029,28.55497 63.78029,63.7803 z"
         id="path53" /></clipPath></defs><sodipodi:namedview
     id="namedview11"
     pagecolor="#ffffff"
     bordercolor="#666666"
     borderopacity="1.0"
     inkscape:pageshadow="2"
     inkscape:pageopacity="0.0"
     inkscape:pagecheckerboard="0"
     showgrid="false"
     fit-margin-top="0"
     fit-margin-left="0"
     fit-margin-right="0"
     fit-margin-bottom="0"
     inkscape:zoom="2.1382576"
     inkscape:cx="-62.200177"
     inkscape:cy="90.494243"
     inkscape:window-width="2560"
     inkscape:window-height="1351"
     inkscape:window-x="-9"
     inkscape:window-y="-9"
     inkscape:window-maximized="1"
     inkscape:current-layer="g15" /><g
     id="g15"
     inkscape:groupmode="layer"
     inkscape:label="matching"
     transform="matrix(1.3333333,0,0,-1.3333333,-274.3014,955.98081)"><g
       id="g25"
       transform="translate(311.254,641.505)"><path
         d="m 28.3468,0 c 0,35.22533 -28.55496,63.7803 -63.78029,63.7803 -35.22534,0 -63.78031,-28.55497 -63.78031,-63.7803 0,-35.22533 28.55497,-63.7803 63.78031,-63.7803 35.22533,0 63.78029,28.55497 63.78029,63.7803 z"
         style="fill:none;stroke:#ff0000;stroke-width:0.3985;stroke-linecap:butt;stroke-linejoin:miter;stroke-miterlimit:10;stroke-dasharray:none;stroke-opacity:1"
         id="path27" /></g><g
       id="g29"
       transform="translate(311.254,641.505)"><path
         d="m 3.54335,0 c 0,21.52658 -17.45025,38.97685 -38.97684,38.97685 -21.52659,0 -38.97686,-17.45027 -38.97686,-38.97685 0,-21.52658 17.45027,-38.97685 38.97686,-38.97685 21.52659,0 38.97684,17.45027 38.97684,38.97685 z"
         style="fill:none;stroke:#00ff00;stroke-width:0.3985;stroke-linecap:butt;stroke-linejoin:miter;stroke-miterlimit:10;stroke-dasharray:none;stroke-opacity:1"
         id="path31" /></g><g
       id="g33"
       transform="translate(311.254,641.505)"><path
         d="m 99.2138,0 c 0,35.22533 -28.55497,63.7803 -63.78031,63.7803 C 0.20816,63.7803 -28.3468,35.22533 -28.3468,0 c 0,-35.22533 28.55496,-63.7803 63.78029,-63.7803 35.22534,0 63.78031,28.55497 63.78031,63.7803 z"
         style="fill:none;stroke:#0000ff;stroke-width:0.3985;stroke-linecap:butt;stroke-linejoin:miter;stroke-miterlimit:10;stroke-dasharray:none;stroke-opacity:1"
         id="path35" /></g><g
       id="g37"
       transform="translate(311.254,641.505)"><g
         id="g39"
         clip-path="url(#clipPath43)"><g
           id="g45"><path
             d="M 45.35484,0 C 45.35484,29.35445 25.0491,53.15025 0,53.15025 -25.0491,53.15025 -45.35484,29.35445 -45.35484,0 c 0,-29.35445 20.30574,-53.15025 45.35484,-53.15025 25.0491,0 45.35484,23.7958 45.35484,53.15025 z"
             style="fill:none;stroke:#000000;stroke-width:0.3985;stroke-linecap:butt;stroke-linejoin:miter;stroke-miterlimit:10;stroke-dasharray:none;stroke-opacity:1"
             id="path47" /></g></g></g><g
       id="g49"
       transform="translate(311.254,641.505)"><g
         id="g51"
         clip-path="url(#clipPath55)"><g
           id="g57"><path
             d="m 99.2138,0 c 0,35.22533 -28.55497,63.7803 -63.78031,63.7803 C 0.20816,63.7803 -28.3468,35.22533 -28.3468,0 c 0,-35.22533 28.55496,-63.7803 63.78029,-63.7803 35.22534,0 63.78031,28.55497 63.78031,63.7803 z"
             style="fill:none;stroke:#000000;stroke-width:0.3985;stroke-linecap:butt;stroke-linejoin:miter;stroke-miterlimit:10;stroke-dasharray:none;stroke-opacity:1"
             id="path59" /></g></g></g><g
       id="g61"
       transform="translate(311.254,641.505)"><g
         id="g63"
         transform="translate(-106.018,67.139)"><g
           id="g65"><g
             id="g67"
             transform="translate(-205.236,-708.644)"><text
               transform="matrix(1,0,0,-1,205.236,708.644)"
               style="font-variant:normal;font-weight:normal;font-size:10.9091px;font-family:CMCSC10;-inkscape-font-specification:CMCSC10;writing-mode:lr-tb;fill:#ff0000;fill-opacity:1;fill-rule:nonzero;stroke:none"
               id="text71"><tspan
                 x="0"
                 y="0"
                 sodipodi:role="line"
                 id="tspan69">Weakly Envy-free</tspan></text></g></g><g
           id="g75"
           transform="translate(106.018,-67.139)" /></g></g><g
       id="g83"><text
         transform="matrix(1,0,0,-1,236.502,637.778)"
         style="font-variant:normal;font-weight:normal;font-size:10.9091px;font-family:CMCSC10;-inkscape-font-specification:CMCSC10;writing-mode:lr-tb;fill:#00ff00;fill-opacity:1;fill-rule:nonzero;stroke:none"
         id="text87"><tspan
           x="0"
           y="0"
           sodipodi:role="line"
           id="tspan85">Envy-Free</tspan></text><g
         id="g89"
         transform="translate(236.502,637.778)" /></g><g
       id="g91"
       transform="translate(311.254,641.505)" /><g
       id="g99"><text
         transform="matrix(1,0,0,-1,308.299,637.778)"
         style="font-variant:normal;font-weight:normal;font-size:10.9091px;font-family:CMCSC10;-inkscape-font-specification:CMCSC10;writing-mode:lr-tb;fill:#000000;fill-opacity:1;fill-rule:nonzero;stroke:none"
         id="text103"><tspan
           x="0"
           y="0"
           sodipodi:role="line"
           id="tspan101">Stable</tspan></text><g
         id="g105"
         transform="translate(308.299,637.778)" /></g><g
       id="g107"
       transform="translate(311.254,641.505)" /><text
       transform="scale(1,-1)"
       style="font-variant:normal;font-weight:normal;font-size:10.9091px;font-family:CMCSC10;-inkscape-font-specification:CMCSC10;writing-mode:lr-tb;fill:#0000ff;fill-opacity:1;fill-rule:nonzero;stroke:none"
       id="text119"
       x="325.23099"
       y="-708.64398"><tspan
         x="325.23099"
         y="-708.64398"
         sodipodi:role="line"
         id="tspan117">Non-Wasteful</tspan></text><g
       id="g121"
       transform="translate(325.231,708.644)" /><g
       id="g123"
       transform="translate(311.254,641.505)" /></g></svg>
