<?xml version="1.0" encoding="UTF-8" standalone="no"?>
<!-- Created with Inkscape (http://www.inkscape.org/) -->

<svg
   version="1.1"
   id="svg9"
   xml:space="preserve"
   width="264.83871"
   height="59.19561"
   viewBox="0 0 264.83872 59.19561"
   sodipodi:docname="matching.svg"
   inkscape:version="1.1.1 (3bf5ae0d25, 2021-09-20)"
   xmlns:inkscape="http://www.inkscape.org/namespaces/inkscape"
   xmlns:sodipodi="http://sodipodi.sourceforge.net/DTD/sodipodi-0.dtd"
   xmlns="http://www.w3.org/2000/svg"
   xmlns:svg="http://www.w3.org/2000/svg"><defs
     id="defs13"><clipPath
       clipPathUnits="userSpaceOnUse"
       id="clipPath43"><path
         d="m 99.2138,0 c 0,35.22533 -28.55497,63.7803 -63.78031,63.7803 C 0.20816,63.7803 -28.3468,35.22533 -28.3468,0 c 0,-35.22533 28.55496,-63.7803 63.78029,-63.7803 35.22534,0 63.78031,28.55497 63.78031,63.7803 z"
         id="path41" /></clipPath><clipPath
       clipPathUnits="userSpaceOnUse"
       id="clipPath55"><path
         d="m 28.3468,0 c 0,35.22533 -28.55496,63.7803 -63.78029,63.7803 -35.22534,0 -63.78031,-28.55497 -63.78031,-63.7803 0,-35.22533 28.55497,-63.7803 63.78031,-63.7803 35.22533,0 63.78029,28.55497 63.78029,63.7803 z"
         id="path53" /></clipPath></defs><sodipodi:namedview
     id="namedview11"
     pagecolor="#ffffff"
     bordercolor="#666666"
     borderopacity="1.0"
     inkscape:pageshadow="2"
     inkscape:pageopacity="0.0"
     inkscape:pagecheckerboard="0"
     showgrid="false"
     fit-margin-top="0"
     fit-margin-left="0"
     fit-margin-right="0"
     fit-margin-bottom="0"
     inkscape:zoom="4"
     inkscape:cx="195.375"
     inkscape:cy="46.875"
     inkscape:window-width="2560"
     inkscape:window-height="1351"
     inkscape:window-x="2551"
     inkscape:window-y="-9"
     inkscape:window-maximized="1"
     inkscape:current-layer="g15" /><g
     id="g15"
     inkscape:groupmode="layer"
     inkscape:label="matching"
     transform="matrix(1.3333333,0,0,-1.3333333,-282.58596,955.98079)"><path
       d="m 339.6008,688.98746 c 0,9.00116 -28.55496,16.29784 -63.78029,16.29784 -35.22534,0 -63.78031,-7.29668 -63.78031,-16.29784 0,-9.00116 28.55497,-16.29784 63.78031,-16.29784 35.22533,0 63.78029,7.29668 63.78029,16.29784 z"
       style="fill:none;stroke:#ff0000;stroke-width:0.201442;stroke-linecap:butt;stroke-linejoin:miter;stroke-miterlimit:10;stroke-dasharray:none;stroke-opacity:1"
       id="path27" /><path
       d="m 314.79735,688.98746 c 0,5.50071 -17.45025,9.95979 -38.97684,9.95979 -21.52659,0 -38.97686,-4.45908 -38.97686,-9.95979 0,-5.50071 17.45027,-9.95978 38.97686,-9.95978 21.52659,0 38.97684,4.45907 38.97684,9.95978 z"
       style="fill:none;stroke:#00ff00;stroke-width:0.201442;stroke-linecap:butt;stroke-linejoin:miter;stroke-miterlimit:10;stroke-dasharray:none;stroke-opacity:1"
       id="path31" /><path
       d="m 410.4678,688.98746 c 0,9.00116 -28.55497,16.29784 -63.78031,16.29784 -35.22533,0 -63.78029,-7.29668 -63.78029,-16.29784 0,-9.00116 28.55496,-16.29784 63.78029,-16.29784 35.22534,0 63.78031,7.29668 63.78031,16.29784 z"
       style="fill:none;stroke:#0000ff;stroke-width:0.201442;stroke-linecap:butt;stroke-linejoin:miter;stroke-miterlimit:10;stroke-dasharray:none;stroke-opacity:1"
       id="path35" /><path
       id="path47"
       style="fill:none;stroke:#000000;stroke-width:0.201442;stroke-linecap:butt;stroke-linejoin:miter;stroke-miterlimit:10;stroke-dasharray:none;stroke-opacity:1"
       d="m 311.42919,702.56757 c -17.18757,-2.9197 -28.52198,-7.91075 -28.52198,-13.58007 0,-5.66932 11.33441,-10.66036 28.52198,-13.58007 24.96781,0.0285 45.18017,6.09676 45.18017,13.58007 0,7.48332 -20.21236,13.55155 -45.18017,13.58007 z" /><text
       transform="scale(1,-1)"
       style="font-variant:normal;font-weight:normal;font-size:10.9091px;font-family:CMCSC10;-inkscape-font-specification:CMCSC10;writing-mode:lr-tb;fill:#ff0000;fill-opacity:1;fill-rule:nonzero;stroke:none"
       id="text71"
       x="214.23599"
       y="-708.64398"><tspan
         x="214.23599"
         y="-708.64398"
         sodipodi:role="line"
         id="tspan69">Weakly Envy-free</tspan></text><text
       transform="scale(1,-1)"
       style="font-variant:normal;font-weight:normal;font-size:10.9091px;font-family:CMCSC10;-inkscape-font-specification:CMCSC10;writing-mode:lr-tb;fill:#00ff00;fill-opacity:1;fill-rule:nonzero;stroke:none"
       id="text87"
       x="242.502"
       y="-685.77802"><tspan
         x="242.502"
         y="-685.77802"
         sodipodi:role="line"
         id="tspan85">Envy-Free</tspan></text><text
       transform="scale(1,-1)"
       style="font-variant:normal;font-weight:normal;font-size:10.9091px;font-family:CMCSC10;-inkscape-font-specification:CMCSC10;writing-mode:lr-tb;fill:#000000;fill-opacity:1;fill-rule:nonzero;stroke:none"
       id="text103"
       x="311.29901"
       y="-685.77802"><tspan
         x="311.29901"
         y="-685.77802"
         sodipodi:role="line"
         id="tspan101">Stable</tspan></text><text
       transform="scale(1,-1)"
       style="font-variant:normal;font-weight:normal;font-size:10.9091px;font-family:CMCSC10;-inkscape-font-specification:CMCSC10;writing-mode:lr-tb;fill:#0000ff;fill-opacity:1;fill-rule:nonzero;stroke:none"
       id="text119"
       x="325.23099"
       y="-708.64398"><tspan
         x="325.23099"
         y="-708.64398"
         sodipodi:role="line"
         id="tspan117">Non-Wasteful</tspan></text></g></svg>
